
<svg xmlns="http://www.w3.org/2000/svg" fill="currentColor" viewBox="0 0 24 24">
  <path d="M20.317 4.369a19.791 19.791 0 0 0-4.885-1.515.07.07 0 0 0-.073.035c-.211.375-.444.864-.608 1.248-1.844-.276-3.68-.276-5.486 0a12.651 12.651 0 0 0-.622-1.248.067.067 0 0 0-.073-.035 19.736 19.736 0 0 0-4.885 1.515.064.064 0 0 0-.03.027C2.2 9.045 1.28 13.578 1.622 18.06a.08.08 0 0 0 .031.055c2.052 1.511 4.045 2.422 5.993 3.018a.077.077 0 0 0 .084-.027c.461-.63.873-1.295 1.226-1.984a.076.076 0 0 0-.041-.103c-.652-.248-1.27-.548-1.871-.892a.075.075 0 0 1-.007-.125c.125-.094.25-.192.372-.29a.074.074 0 0 1 .077-.01c3.927 1.792 8.18 1.792 12.061 0a.074.074 0 0 1 .078.01c.122.098.247.197.372.29a.075.075 0 0 1-.006.125c-.6.344-1.22.644-1.872.892a.075.075 0 0 0-.04.103c.36.689.773 1.354 1.226 1.984a.077.077 0 0 0 .084.027c1.948-.596 3.941-1.507 5.993-3.018a.077.077 0 0 0 .031-.055c.5-6.073-1.007-10.564-3.67-13.663a.06.06 0 0 0-.03-.027zM8.02 15.331c-1.183 0-2.157-1.085-2.157-2.419 0-1.333.953-2.418 2.157-2.418 1.21 0 2.17 1.09 2.157 2.418 0 1.334-.953 2.419-2.157 2.419zm7.974 0c-1.183 0-2.157-1.085-2.157-2.419 0-1.333.953-2.418 2.157-2.418 1.21 0 2.17 1.09 2.157 2.418 0 1.334-.947 2.419-2.157 2.419z"/>
</svg>
