
<svg xmlns="http://www.w3.org/2000/svg" fill="currentColor" viewBox="0 0 24 24">
  <path d="M12 2.2c3.2 0 3.584.012 4.85.07 1.17.056 1.97.24 2.427.41a4.92 4.92 0 0 1 1.755 1.01 4.92 4.92 0 0 1 1.01 1.756c.17.456.354 1.256.41 2.426.058 1.267.07 1.65.07 4.85s-.012 3.584-.07 4.85c-.056 1.17-.24 1.97-.41 2.426a4.92 4.92 0 0 1-1.01 1.756 4.92 4.92 0 0 1-1.755 1.01c-.456.17-1.256.354-2.427.41-1.267.058-1.65.07-4.85.07s-3.584-.012-4.85-.07c-1.17-.056-1.97-.24-2.426-.41a4.92 4.92 0 0 1-1.756-1.01 4.92 4.92 0 0 1-1.01-1.755c-.17-.456-.354-1.256-.41-2.427C2.212 15.584 2.2 15.2 2.2 12s.012-3.584.07-4.85c.056-1.17.24-1.97.41-2.426a4.92 4.92 0 0 1 1.01-1.756A4.92 4.92 0 0 1 5.445 2.68c.456-.17 1.256-.354 2.426-.41C8.416 2.212 8.8 2.2 12 2.2zM12 0C8.74 0 8.332.012 7.052.07 5.768.127 4.8.313 4.05.56c-.77.25-1.418.583-2.065 1.23-.647.647-.98 1.295-1.23 2.065-.247.75-.433 1.718-.49 3C.012 8.332 0 8.74 0 12c0 3.26.012 3.668.07 4.948.057 1.282.243 2.25.49 3 .25.77.583 1.418 1.23 2.065.647.647 1.295.98 2.065 1.23.75.247 1.718.433 3 .49C8.332 23.988 8.74 24 12 24s3.668-.012 4.948-.07c1.282-.057 2.25-.243 3-.49.77-.25 1.418-.583 2.065-1.23.647-.647.98-1.295 1.23-2.065.247-.75.433-1.718.49-3 .058-1.28.07-1.688.07-4.948s-.012-3.668-.07-4.948c-.057-1.282-.243-2.25-.49-3-.25-.77-.583-1.418-1.23-2.065-.647-.647-1.295-.98-2.065-1.23-.75-.247-1.718-.433-3-.49C15.668.012 15.26 0 12 0z"/>
  <path d="M12 5.838a6.162 6.162 0 1 0 0 12.324 6.162 6.162 0 0 0 0-12.324zm0 10.162a4 4 0 1 1 0-8 4 4 0 0 1 0 8zM18.406 4.594a1.44 1.44 0 1 0 0 2.88 1.44 1.44 0 0 0 0-2.88z"/>
</svg>
